<svg width="1016" height="1080" viewBox="0 0 1016 1080" fill="none" xmlns="http://www.w3.org/2000/svg">
<g clip-path="url(#clip0_34_4897)">
<path d="M1964.53 419.448L711.535 419.448C690.363 419.448 673.192 436.646 673.192 457.863L673.192 1551.51" stroke="#A585FF" stroke-miterlimit="10"/>
<path d="M1966.32 449.436L734.139 449.436C717.793 449.436 704.498 462.74 704.498 479.128L704.498 1564.12" stroke="#A585FF" stroke-miterlimit="10"/>
<path d="M1960.93 479.455L756.713 479.455C745.146 479.455 735.79 488.833 735.79 500.423L735.79 1542.5" stroke="#A585FF" stroke-miterlimit="10"/>
<path d="M2005.92 509.427L779.317 509.427C772.576 509.427 767.096 514.91 767.096 521.671L767.096 1558.71" stroke="#A585FF" stroke-miterlimit="10"/>
<path d="M1892.96 388.091L443.311 388.091C425.968 388.091 409.342 381.19 397.075 368.93L22.9375 -5.45649" stroke="#A585FF" stroke-miterlimit="10"/>
<path d="M1896.56 356.935L450.737 356.935C436.617 356.935 423.073 351.327 413.094 341.326L35.4074 -36.6123" stroke="#A585FF" stroke-miterlimit="10"/>
<path d="M1901.96 325.779L458.147 325.779C447.25 325.779 436.788 321.448 429.082 313.737L47.8308 -67.7685" stroke="#A585FF" stroke-miterlimit="10"/>
<path d="M1903.76 294.623L465.573 294.623C457.898 294.623 450.534 291.57 445.101 286.133L60.3 -98.9243" stroke="#A585FF" stroke-miterlimit="10"/>
</g>
<defs>
<clipPath id="clip0_34_4897">
<rect width="1016" height="1080" fill="white" transform="translate(1016 1080) rotate(-180)"/>
</clipPath>
</defs>
</svg>
