<svg width="125" height="150" viewBox="0 0 125 150" fill="none" xmlns="http://www.w3.org/2000/svg">
<g clip-path="url(#clip0_1_53)">
<path fill-rule="evenodd" clip-rule="evenodd" d="M29.7339 59.8088C33.7075 57.5145 33.7141 50.087 29.7486 43.2188C25.7832 36.3506 19.3473 32.6427 15.3737 34.937C11.4001 37.2312 11.3935 44.6588 15.3589 51.5269C19.3243 58.3952 25.7603 62.103 29.7339 59.8088ZM29.7577 74.5153C33.7231 81.3835 33.7165 88.811 29.7429 91.1052C25.7692 93.3995 19.3334 89.6915 15.368 82.8234C11.4025 75.9553 11.4091 68.5277 15.3827 66.2334C19.3564 63.9392 25.7922 67.6471 29.7577 74.5153ZM56.8365 90.1709C60.802 97.039 60.7954 104.466 56.8218 106.761C52.8482 109.055 46.4123 105.347 42.4468 98.479C38.4814 91.6108 38.488 84.1833 42.4616 81.8889C46.4352 79.5947 52.8711 83.3026 56.8365 90.1709ZM56.8277 58.8748C60.7932 65.7429 60.7866 73.1706 56.813 75.4648C52.8394 77.759 46.4035 74.0511 42.4381 67.1829C38.4726 60.3147 38.4792 52.8872 42.4528 50.593C46.4264 48.2987 52.8622 52.0067 56.8277 58.8748Z" fill="#F26E7E"/>
<path fill-rule="evenodd" clip-rule="evenodd" d="M110.998 51.5442C114.964 44.6761 114.958 37.2484 110.984 34.9542C107.01 32.66 100.574 36.3679 96.609 43.2362C92.644 50.1043 92.65 57.5318 96.624 59.8261C100.597 62.1204 107.033 58.4124 110.998 51.5442ZM110.999 66.2433C114.973 68.5375 114.98 75.965 111.015 82.8333C107.049 89.7014 100.613 93.4093 96.639 91.1151C92.666 88.8209 92.659 81.3933 96.625 74.5251C100.59 67.657 107.026 63.9491 110.999 66.2433ZM83.9259 81.8732C87.8996 84.1674 87.9062 91.5949 83.9408 98.4632C79.9753 105.331 73.5394 109.039 69.5658 106.745C65.5922 104.451 65.5856 97.0232 69.551 90.155C73.5165 83.2868 79.9524 79.5789 83.9259 81.8732ZM83.9107 50.5839C87.8843 52.8781 87.8909 60.3058 83.9254 67.1739C79.96 74.0421 73.5241 77.7501 69.5504 75.4558C65.5768 73.1616 65.5702 65.734 69.5357 58.8659C73.5012 51.9976 79.937 48.2897 83.9107 50.5839Z" fill="#8A3391"/>
<path fill-rule="evenodd" clip-rule="evenodd" d="M77.5343 8.30814C77.5343 12.8966 71.1051 16.6163 63.1742 16.6163C55.2432 16.6163 48.814 12.8966 48.814 8.30814C48.814 3.71967 55.2432 0 63.1742 0C71.1051 0 77.5343 3.71967 77.5343 8.30814ZM50.4611 23.922C50.4611 28.5104 44.0318 32.2301 36.1009 32.2301C28.17 32.2301 21.7407 28.5104 21.7407 23.922C21.7407 19.3336 28.17 15.6139 36.1009 15.6139C44.0318 15.6139 50.4611 19.3336 50.4611 23.922ZM90.283 32.2301C98.214 32.2301 104.643 28.5104 104.643 23.922C104.643 19.3336 98.214 15.6139 90.283 15.6139C82.3519 15.6139 75.9226 19.3336 75.9226 23.922C75.9226 28.5104 82.3519 32.2301 90.283 32.2301ZM77.5343 39.5709C77.5343 44.1593 71.1051 47.8789 63.1742 47.8789C55.2432 47.8789 48.814 44.1593 48.814 39.5709C48.814 34.9825 55.2432 31.2628 63.1742 31.2628C71.1051 31.2628 77.5343 34.9825 77.5343 39.5709Z" fill="#F7BF2A"/>
<path d="M26.71 128.583C27.4378 128.583 27.8427 128.988 27.8428 129.717V141.114C27.8429 143.948 29.764 145.931 32.5547 145.931C35.4667 145.93 37.9746 143.482 37.9746 140V129.717C37.9747 128.988 38.3787 128.583 39.1064 128.583H41.4727C42.2007 128.583 42.6054 128.988 42.6055 129.717V148.401C42.6053 149.13 42.2006 149.535 41.4727 149.535H39.1064C38.3787 149.535 37.9747 149.13 37.9746 148.401V146.761C36.559 148.684 34.273 150 31.6035 150C26.5681 150 23.2315 146.66 23.2314 141.498V129.717C23.2315 128.988 23.6362 128.583 24.3643 128.583H26.71Z" fill="white"/>
<path d="M61.3516 128.583C62.0796 128.583 62.4843 128.988 62.4844 129.717V141.114C62.4845 143.948 64.4057 145.931 67.1963 145.931C70.1084 145.931 72.6162 143.482 72.6162 140V129.717C72.6163 128.988 73.0211 128.583 73.749 128.583H76.1152C76.8431 128.583 77.247 128.988 77.2471 129.717V148.401C77.2469 149.13 76.843 149.535 76.1152 149.535H73.749C73.0211 149.535 72.6163 149.13 72.6162 148.401V146.761C71.2006 148.684 68.9155 150 66.2461 150C61.2105 150 57.8731 146.66 57.873 141.498V129.717C57.8731 128.988 58.278 128.583 59.0059 128.583H61.3516Z" fill="white"/>
<path d="M107.157 128.097C111.707 128.097 115.186 131.458 115.186 136.62V148.421C115.186 149.15 114.781 149.555 114.053 149.555H111.687C110.959 149.555 110.555 149.15 110.555 148.421V137.025C110.555 134.191 108.795 132.207 106.207 132.207C103.598 132.207 101.131 134.838 101.131 138.016V148.421C101.131 149.15 100.726 149.555 99.998 149.555H97.6318C96.9039 149.555 96.5 149.15 96.5 148.421V137.025C96.5 134.192 94.7402 132.207 92.1523 132.207C89.6644 132.207 87.0754 134.595 87.0752 138.016V148.421C87.0752 149.15 86.6711 149.555 85.9434 149.555H83.5771C82.8492 149.555 82.4443 149.15 82.4443 148.421V129.717C82.4444 128.988 82.8492 128.583 83.5771 128.583H85.9434C86.6711 128.583 87.0751 128.988 87.0752 129.717V131.316C88.5517 129.373 90.6751 128.097 93.1221 128.097C96.277 128.097 98.9262 129.737 100.241 132.45C101.616 129.818 104.164 128.097 107.157 128.097Z" fill="white"/>
<path d="M51.6035 120C52.3314 120 52.7362 120.405 52.7363 121.134V148.401C52.7362 149.13 52.3314 149.535 51.6035 149.535H49.2578C48.5301 149.535 48.1261 149.13 48.126 148.401V121.134C48.1261 120.405 48.53 120 49.2578 120H51.6035Z" fill="white"/>
<path d="M123.801 128.583C124.529 128.583 124.934 128.988 124.934 129.717V148.401C124.933 149.13 124.529 149.535 123.801 149.535H121.455C120.727 149.535 120.323 149.13 120.323 148.401V129.717C120.323 128.988 120.727 128.583 121.455 128.583H123.801Z" fill="white"/>
<path fill-rule="evenodd" clip-rule="evenodd" d="M10.0254 121.214C16.0518 121.214 19.834 124.837 19.834 130.242C19.8339 135.667 16.0517 139.269 10.0254 139.27H5.27246V148.4C5.27231 149.129 4.86823 149.533 4.14062 149.533H1.63281C0.904945 149.533 0.500147 149.129 0.5 148.4V122.347C0.500119 121.618 0.904919 121.214 1.63281 121.214H10.0254ZM5.27246 135.262H9.72168C13.1191 135.262 15.04 133.299 15.04 130.242C15.04 127.205 13.1192 125.242 9.72168 125.242H5.27246V135.262Z" fill="white"/>
<path d="M122.628 120.041C124.246 120.041 125.5 121.275 125.5 122.875C125.5 124.454 124.246 125.688 122.628 125.688C121.01 125.688 119.777 124.454 119.777 122.875C119.777 121.275 121.01 120.041 122.628 120.041Z" fill="white"/>
</g>
<defs>
<clipPath id="clip0_1_53">
<rect width="125" height="150" fill="white"/>
</clipPath>
</defs>
</svg>
