<svg width="200" height="200" viewBox="0 0 200 200" fill="none" xmlns="http://www.w3.org/2000/svg">
<rect width="200" height="200" rx="16" fill="#231F33"/>
<g clip-path="url(#clip0_120_1769)">
<path fill-rule="evenodd" clip-rule="evenodd" d="M67.0724 105.37C70.9836 103.111 70.9901 95.8006 67.0869 89.0402C63.1837 82.2799 56.8489 78.6302 52.9377 80.8884C49.0265 83.1466 49.02 90.4576 52.9231 97.2179C56.8263 103.978 63.1612 107.628 67.0724 105.37ZM67.0958 119.845C70.999 126.606 70.9925 133.917 67.0813 136.175C63.17 138.433 56.8352 134.783 52.932 128.023C49.0288 121.263 49.0353 113.952 52.9465 111.693C56.8578 109.435 63.1926 113.085 67.0958 119.845ZM93.7495 135.255C97.6527 142.015 97.6462 149.326 93.735 151.585C89.8238 153.843 83.4889 150.193 79.5857 143.433C75.6826 136.672 75.6891 129.361 79.6003 127.103C83.5115 124.845 89.8463 128.495 93.7495 135.255ZM93.7408 104.45C97.644 111.211 97.6375 118.522 93.7263 120.78C89.8151 123.038 83.4803 119.388 79.5771 112.628C75.6739 105.868 75.6804 98.5568 79.5916 96.2986C83.5028 94.0404 89.8377 97.6901 93.7408 104.45Z" fill="#F26E7E"/>
<path fill-rule="evenodd" clip-rule="evenodd" d="M147.061 97.2349C150.964 90.4746 150.958 83.1636 147.047 80.9054C143.136 78.6472 136.801 82.2969 132.898 89.0573C128.994 95.8176 129.001 103.129 132.912 105.387C136.823 107.645 143.158 103.995 147.061 97.2349ZM147.062 111.703C150.973 113.961 150.98 121.272 147.077 128.033C143.173 134.793 136.839 138.443 132.927 136.185C129.016 133.926 129.01 126.615 132.913 119.855C136.816 113.095 143.151 109.445 147.062 111.703ZM120.414 127.088C124.325 129.346 124.331 136.657 120.428 143.417C116.525 150.177 110.19 153.827 106.279 151.569C102.368 149.311 102.361 142 106.264 135.24C110.168 128.479 116.502 124.829 120.414 127.088ZM120.399 96.2897C124.31 98.5479 124.316 105.859 120.413 112.619C116.51 119.38 110.175 123.029 106.264 120.771C102.353 118.513 102.346 111.202 106.249 104.442C110.153 97.6812 116.487 94.0315 120.399 96.2897Z" fill="#8A3391"/>
<path fill-rule="evenodd" clip-rule="evenodd" d="M114.122 54.6777C114.122 59.1941 107.794 62.8554 99.9875 62.8554C92.1811 62.8554 85.8528 59.1941 85.8528 54.6777C85.8528 50.1613 92.1811 46.5 99.9875 46.5C107.794 46.5 114.122 50.1613 114.122 54.6777ZM87.474 70.0464C87.474 74.5628 81.1457 78.2241 73.3393 78.2241C65.5329 78.2241 59.2046 74.5628 59.2046 70.0464C59.2046 65.53 65.5329 61.8687 73.3393 61.8687C81.1457 61.8687 87.474 65.53 87.474 70.0464ZM126.671 78.2241C134.477 78.2241 140.805 74.5628 140.805 70.0464C140.805 65.53 134.477 61.8687 126.671 61.8687C118.864 61.8687 112.536 65.53 112.536 70.0464C112.536 74.5628 118.864 78.2241 126.671 78.2241ZM114.122 85.4496C114.122 89.966 107.794 93.6272 99.9875 93.6272C92.1811 93.6272 85.8528 89.966 85.8528 85.4496C85.8528 80.9332 92.1811 77.2719 99.9875 77.2719C107.794 77.2719 114.122 80.9332 114.122 85.4496Z" fill="#F7BF2A"/>
</g>
<defs>
<clipPath id="clip0_120_1769">
<rect width="100" height="106" fill="white" transform="translate(50 46.5)"/>
</clipPath>
</defs>
</svg>
