<svg width="250" height="200" viewBox="0 0 250 200" fill="none" xmlns="http://www.w3.org/2000/svg">
<g clip-path="url(#clip0_15_1171)">
<path d="M539.784 101.931L140.712 101.931C133.969 101.931 128.5 96.4584 128.5 89.7066L128.5 -258.315" stroke="#9077F3" stroke-miterlimit="10"/>
<path d="M540.357 92.3884L147.911 92.3884C142.705 92.3884 138.471 88.1549 138.471 82.9399L138.471 -262.327" stroke="#9077F3" stroke-miterlimit="10"/>
<path d="M538.638 82.8359L155.101 82.8358C151.417 82.8358 148.437 79.8515 148.437 76.1633L148.437 -255.449" stroke="#9077F3" stroke-miterlimit="10"/>
<path d="M552.969 73.2981L162.3 73.2981C160.153 73.2981 158.408 71.5531 158.408 69.4017L158.408 -260.607" stroke="#9077F3" stroke-miterlimit="10"/>
</g>
<defs>
<clipPath id="clip0_15_1171">
<rect width="250" height="200" fill="white" transform="matrix(-1 -1.74846e-07 -1.74846e-07 1 250 4.37114e-05)"/>
</clipPath>
</defs>
</svg>
